<svg aria-hidden="true" role="img" xmlns="http://www.w3.org/2000/svg">

	<symbol id="behance" viewBox="0 0 100 100" fill="currentColor">
		<path d="M40.472 46.81c5.41-2.586 8.235-6.499 8.235-12.59 0-12.012-8.949-14.938-19.277-14.938H1v60.297h29.23c10.957 0 21.25-5.257 21.25-17.507 0-7.572-3.59-13.169-11.008-15.262zM14.254 29.575h12.437c4.781 0 9.085 1.344 9.085 6.891 0 5.121-3.352 7.18-8.082 7.18h-13.44V29.575zm14.172 39.761H14.254V52.731h14.445c5.836 0 9.528 2.433 9.528 8.609-.001 6.091-4.407 7.996-9.801 7.996zm60.995-40.952H64.972v-5.938h24.449v5.938zM99 58.379c0-12.914-7.554-23.683-21.25-23.683-13.305 0-22.339 10.004-22.339 23.105 0 13.594 8.558 22.918 22.339 22.918 10.43 0 17.184-4.696 20.434-14.683H87.601c-1.14 3.726-5.836 5.7-9.477 5.7-7.027 0-10.719-4.117-10.719-11.11h31.493c.051-.715.102-1.481.102-2.247zm-31.578-5.308c.391-5.734 4.202-9.324 9.953-9.324 6.023 0 9.051 3.539 9.562 9.324H67.422z"/>
	</symbol>

	<symbol id="github" viewBox="0 0 100 100" fill="currentColor">
		<path d="M33.779 79.162c0 .395-.454.711-1.027.711-.652.059-1.106-.257-1.106-.711 0-.395.454-.711 1.027-.711.592-.059 1.106.257 1.106.711zm-6.145-.889c-.138.395.257.85.85.968.514.198 1.106 0 1.225-.395s-.257-.85-.85-1.027c-.514-.139-1.087.059-1.225.454zm8.733-.336c-.573.138-.968.514-.909.968.059.395.573.652 1.166.514.573-.138.968-.514.909-.909-.06-.375-.593-.632-1.166-.573zM49.368 2.224C21.963 2.224 1 23.03 1 50.434c0 21.912 13.791 40.662 33.49 47.261 2.529.454 3.418-1.106 3.418-2.391 0-1.225-.059-7.982-.059-12.131 0 0-13.831 2.964-16.735-5.888 0 0-2.252-5.75-5.493-7.231 0 0-4.525-3.102.316-3.043 0 0 4.92.395 7.627 5.098 4.327 7.627 11.578 5.433 14.404 4.129.454-3.161 1.739-5.354 3.161-6.658-11.045-1.226-22.189-2.826-22.189-21.833 0-5.433 1.502-8.16 4.663-11.638-.514-1.284-2.193-6.579.514-13.416 4.129-1.284 13.633 5.335 13.633 5.335 3.952-1.106 8.2-1.679 12.408-1.679s8.456.573 12.408 1.679c0 0 9.504-6.639 13.633-5.335 2.707 6.856 1.027 12.131.514 13.416 3.161 3.497 5.098 6.224 5.098 11.638 0 19.067-11.637 20.588-22.682 21.833 1.818 1.561 3.359 4.525 3.359 9.168 0 6.658-.059 14.898-.059 16.518 0 1.284.909 2.845 3.418 2.391C85.604 91.096 99 72.346 99 50.434c0-27.404-22.228-48.21-49.632-48.21zM20.205 70.37c-.257.198-.198.652.138 1.027.316.316.771.454 1.027.198.257-.198.198-.652-.138-1.027-.316-.317-.77-.455-1.027-.198zm-2.134-1.601c-.138.257.059.573.454.771.316.198.711.138.85-.138.138-.257-.059-.573-.454-.771-.396-.118-.712-.059-.85.138zm6.402 7.034c-.316.257-.198.85.257 1.225.454.454 1.027.514 1.284.198.257-.257.138-.85-.257-1.225-.435-.455-1.028-.514-1.284-.198zm-2.253-2.904c-.316.198-.316.711 0 1.166.316.454.85.652 1.106.454.316-.257.316-.771 0-1.225-.276-.454-.79-.652-1.106-.395z"/>
	</symbol>

	<symbol id="linkedin" viewBox="0 0 100 100" fill="currentColor">
		<path d="M79.411 95.841V58.735s-1.099-9.926-10.702-9.926c-9.598 0-11.353 9.436-11.353 9.436v37.596h-19.78l.323-61.294h19.135l-.155 7.704s3.99-10.069 19.022-10.069c15.026 0 21.835 8.636 23.101 24.785v38.874H79.411zM13.315 25.839C6.518 25.839 1 20.977 1 14.969S6.518 4.088 13.315 4.088 25.63 8.961 25.63 14.969s-5.519 10.87-12.315 10.87zm12.207 70.073H1.203v-61.21l24.319-.155v61.365z"/>
	</symbol>

	<symbol id="twitter" viewBox="0 0 100 100" fill="currentColor">
		<path d="M88.927 30.039c.062.871.062 1.741.062 2.612 0 26.552-20.209 57.146-57.146 57.146-11.38 0-21.951-3.296-30.843-9.016 1.617.186 3.171.249 4.85.249 9.389 0 18.033-3.171 24.935-8.581-8.83-.187-16.23-5.97-18.779-13.929 1.244.186 2.487.311 3.793.311 1.803 0 3.607-.249 5.286-.684C11.882 56.28 4.98 48.197 4.98 38.434v-.249a20.23 20.23 0 0 0 9.079 2.549c-5.41-3.607-8.954-9.763-8.954-16.727 0-3.731.995-7.151 2.736-10.136 9.887 12.188 24.749 20.147 41.414 21.018a22.66 22.66 0 0 1-.497-4.601c0-11.069 8.954-20.085 20.085-20.085a20.035 20.035 0 0 1 14.675 6.343 39.58 39.58 0 0 0 12.748-4.85c-1.493 4.664-4.664 8.581-8.83 11.068 4.042-.435 7.959-1.555 11.566-3.109a43.235 43.235 0 0 1-10.075 10.384z"/>
	</symbol>

	<symbol id="keyboard" viewBox="0 0 40 40" fill="currentColor">
		<path d="M1 10.33v19.34c0 .999.879 1.838 1.958 1.838h34.084c1.079 0 1.958-.839 1.958-1.838V10.33c0-.999-.879-1.838-1.958-1.838H2.958C1.879 8.492 1 9.331 1 10.33zm36.642 0v19.34c0 .24-.24.44-.56.44H2.958c-.32 0-.56-.2-.56-.44V10.33c0-.24.24-.44.56-.44h34.084c.32.001.6.201.6.44zM9.471 20.679c-.4-.4-.4-.999 0-1.398.4-.4.999-.4 1.398 0 .4.4.4.999 0 1.398-.399.4-1.038.4-1.398 0zm4.915 0c-.4-.4-.4-.999 0-1.398.4-.4.999-.4 1.398 0 .4.4.4.999 0 1.398-.399.4-.998.4-1.398 0zm4.955 0c-.4-.4-.4-.999 0-1.398.4-.4.999-.4 1.398 0 .4.4.4.999 0 1.398-.399.4-1.039.4-1.398 0zm4.915 0c-.4-.4-.4-.999 0-1.398.4-.4.999-.4 1.398 0 .4.4.4.999 0 1.398-.4.4-1.039.4-1.398 0zm4.914 0c-.4-.4-.4-.999 0-1.398.4-.4.999-.4 1.398 0 .4.4.4.999 0 1.398-.359.4-.998.4-1.398 0zm-17.741 3.716h17.182c.4 0 .719.32.719.719 0 .4-.32.719-.719.719H11.429c-.4 0-.719-.32-.719-.719 0-.399.32-.719.719-.719zm-4.435-8.79c-.4-.4-.4-.999 0-1.398.4-.4.999-.4 1.398 0 .4.4.4.999 0 1.398a1.04 1.04 0 0 1-1.398 0zm4.954 0c-.4-.4-.4-.999 0-1.398.4-.4.999-.4 1.398 0 .4.4.4.999 0 1.398-.398.36-1.038.36-1.398 0zm4.915 0c-.4-.4-.4-.999 0-1.398.4-.4.999-.4 1.398 0 .4.4.4.999 0 1.398-.399.36-1.038.36-1.398 0zm4.915 0c-.4-.4-.4-.999 0-1.398.4-.4.999-.4 1.398 0 .4.4.4.999 0 1.398a1.04 1.04 0 0 1-1.398 0zm4.955 0c-.4-.4-.4-.999 0-1.398.4-.4.999-.4 1.398 0 .4.4.4.999 0 1.398-.399.36-1.039.36-1.398 0zm4.915 0c-.4-.4-.4-.999 0-1.398.4-.4.999-.4 1.398 0 .4.4.4.999 0 1.398a1.04 1.04 0 0 1-1.398 0z"/>
	</symbol>

	<symbol id="check" viewBox="0 0 24 24" fill="currentColor">
		<path d="M9 18c-.3 0-.5-.1-.7-.3l-5-5c-.4-.4-.4-1 0-1.4s1-.4 1.4 0L9 15.6 19.3 5.3c.4-.4 1-.4 1.4 0s.4 1 0 1.4l-11 11c-.2.2-.4.3-.7.3z"/>
	</symbol>

	<symbol id="chevron-up" viewBox="0 0 24 24" fill="currentColor">
		<path d="M18 16c-.3 0-.5-.1-.7-.3L12 10.4l-5.3 5.3c-.4.4-1 .4-1.4 0s-.4-1 0-1.4l6-6c.4-.4 1-.4 1.4 0l6 6c.4.4.4 1 0 1.4-.2.2-.4.3-.7.3z"/>
	</symbol>

	<symbol id="close" viewBox="0 0 24 24" fill="currentColor">
		<path d="M6 19c-.3 0-.5-.1-.7-.3-.4-.4-.4-1 0-1.4l12-12c.4-.4 1-.4 1.4 0s.4 1 0 1.4l-12 12c-.2.2-.4.3-.7.3z"/>
		<path d="M18 19c-.3 0-.5-.1-.7-.3l-12-12c-.4-.4-.4-1 0-1.4s1-.4 1.4 0l12 12c.4.4.4 1 0 1.4-.2.2-.4.3-.7.3z"/>
	</symbol>

	<symbol id="copy" viewBox="0 0 24 24" fill="currentColor">
		<path d="M20 23h-9c-1.7 0-3-1.3-3-3v-9c0-1.7 1.3-3 3-3h9c1.7 0 3 1.3 3 3v9c0 1.7-1.3 3-3 3zm-9-13c-.6 0-1 .4-1 1v9c0 .6.4 1 1 1h9c.6 0 1-.4 1-1v-9c0-.6-.4-1-1-1h-9z"/>
		<path d="M5 16H4c-1.7 0-3-1.3-3-3V4c0-1.7 1.3-3 3-3h9c1.7 0 3 1.3 3 3v1c0 .6-.4 1-1 1s-1-.4-1-1V4c0-.6-.4-1-1-1H4c-.6 0-1 .4-1 1v9c0 .6.4 1 1 1h1c.6 0 1 .4 1 1s-.4 1-1 1z"/>
	</symbol>

	<symbol id="help-circle" viewBox="0 0 24 24" fill="currentColor">
		<path d="M12 23C5.9 23 1 18.1 1 12S5.9 1 12 1s11 4.9 11 11-4.9 11-11 11zm0-20c-5 0-9 4-9 9s4 9 9 9 9-4 9-9-4-9-9-9z"/>
		<path d="M11.9 14c-.4 0-.8-.3-.9-.7-.2-.5.1-1.1.6-1.3.6-.2 2.3-1 2.3-2.1 0-.9-.5-1.6-1.3-1.9-1-.4-2.2.2-2.6 1.2-.2.5-.8.8-1.3.6-.5 0-.7-.6-.6-1.1.7-2.1 3-3.2 5.1-2.4 1.6.6 2.7 2.1 2.7 3.8 0 2.6-3.3 3.8-3.7 3.9h-.3zM12 18c-.3 0-.5-.1-.7-.3-.2-.2-.3-.4-.3-.7 0-.1 0-.3.1-.4.1-.1.1-.2.2-.3.4-.4 1-.4 1.4 0 .1.1.2.2.2.3 0 .1.1.3.1.4s0 .3-.1.4c-.1.1-.1.2-.2.3-.2.2-.4.3-.7.3z"/>
	</symbol>

	<symbol id="search" viewBox="0 0 24 24" fill="currentColor">
		<path d="M11 20c-5 0-9-4-9-9s4-9 9-9 9 4 9 9-4 9-9 9zm0-16c-3.9 0-7 3.1-7 7s3.1 7 7 7 7-3.1 7-7-3.1-7-7-7z"/>
		<path d="M21 22c-.3 0-.5-.1-.7-.3L16 17.4c-.4-.4-.4-1 0-1.4s1-.4 1.4 0l4.3 4.3c.4.4.4 1 0 1.4-.2.2-.4.3-.7.3z"/>
	</symbol>

</svg>