<svg xmlns="http://www.w3.org/2000/svg" viewBox="0 0 100 100">
  <path d="M40.472 46.81c5.41-2.586 8.235-6.499 8.235-12.59 0-12.012-8.949-14.938-19.277-14.938H1v60.297h29.23c10.957 0 21.25-5.257 21.25-17.507 0-7.572-3.59-13.169-11.008-15.262zM14.254 29.575h12.437c4.781 0 9.085 1.344 9.085 6.891 0 5.121-3.352 7.18-8.082 7.18h-13.44V29.575zm14.172 39.761H14.254V52.731h14.445c5.836 0 9.528 2.433 9.528 8.609-.001 6.091-4.407 7.996-9.801 7.996zm60.995-40.952H64.972v-5.938h24.449v5.938zM99 58.379c0-12.914-7.554-23.683-21.25-23.683-13.305 0-22.339 10.004-22.339 23.105 0 13.594 8.558 22.918 22.339 22.918 10.43 0 17.184-4.696 20.434-14.683H87.601c-1.14 3.726-5.836 5.7-9.477 5.7-7.027 0-10.719-4.117-10.719-11.11h31.493c.051-.715.102-1.481.102-2.247zm-31.578-5.308c.391-5.734 4.202-9.324 9.953-9.324 6.023 0 9.051 3.539 9.562 9.324H67.422z"/>
</svg>
