<svg xmlns="http://www.w3.org/2000/svg" viewBox="0 0 100 100">
  <path d="M33.779 79.162c0 .395-.454.711-1.027.711-.652.059-1.106-.257-1.106-.711 0-.395.454-.711 1.027-.711.592-.059 1.106.257 1.106.711zm-6.145-.889c-.138.395.257.85.85.968.514.198 1.106 0 1.225-.395s-.257-.85-.85-1.027c-.514-.139-1.087.059-1.225.454zm8.733-.336c-.573.138-.968.514-.909.968.059.395.573.652 1.166.514.573-.138.968-.514.909-.909-.06-.375-.593-.632-1.166-.573zM49.368 2.224C21.963 2.224 1 23.03 1 50.434c0 21.912 13.791 40.662 33.49 47.261 2.529.454 3.418-1.106 3.418-2.391 0-1.225-.059-7.982-.059-12.131 0 0-13.831 2.964-16.735-5.888 0 0-2.252-5.75-5.493-7.231 0 0-4.525-3.102.316-3.043 0 0 4.92.395 7.627 5.098 4.327 7.627 11.578 5.433 14.404 4.129.454-3.161 1.739-5.354 3.161-6.658-11.045-1.226-22.189-2.826-22.189-21.833 0-5.433 1.502-8.16 4.663-11.638-.514-1.284-2.193-6.579.514-13.416 4.129-1.284 13.633 5.335 13.633 5.335 3.952-1.106 8.2-1.679 12.408-1.679s8.456.573 12.408 1.679c0 0 9.504-6.639 13.633-5.335 2.707 6.856 1.027 12.131.514 13.416 3.161 3.497 5.098 6.224 5.098 11.638 0 19.067-11.637 20.588-22.682 21.833 1.818 1.561 3.359 4.525 3.359 9.168 0 6.658-.059 14.898-.059 16.518 0 1.284.909 2.845 3.418 2.391C85.604 91.096 99 72.346 99 50.434c0-27.404-22.228-48.21-49.632-48.21zM20.205 70.37c-.257.198-.198.652.138 1.027.316.316.771.454 1.027.198.257-.198.198-.652-.138-1.027-.316-.317-.77-.455-1.027-.198zm-2.134-1.601c-.138.257.059.573.454.771.316.198.711.138.85-.138.138-.257-.059-.573-.454-.771-.396-.118-.712-.059-.85.138zm6.402 7.034c-.316.257-.198.85.257 1.225.454.454 1.027.514 1.284.198.257-.257.138-.85-.257-1.225-.435-.455-1.028-.514-1.284-.198zm-2.253-2.904c-.316.198-.316.711 0 1.166.316.454.85.652 1.106.454.316-.257.316-.771 0-1.225-.276-.454-.79-.652-1.106-.395z"/>
</svg>
