<svg xmlns="http://www.w3.org/2000/svg" viewBox="0 0 40 40">
  <path d="M1 10.33v19.34c0 .999.879 1.838 1.958 1.838h34.084c1.079 0 1.958-.839 1.958-1.838V10.33c0-.999-.879-1.838-1.958-1.838H2.958C1.879 8.492 1 9.331 1 10.33zm36.642 0v19.34c0 .24-.24.44-.56.44H2.958c-.32 0-.56-.2-.56-.44V10.33c0-.24.24-.44.56-.44h34.084c.32.001.6.201.6.44zM9.471 20.679c-.4-.4-.4-.999 0-1.398.4-.4.999-.4 1.398 0 .4.4.4.999 0 1.398-.399.4-1.038.4-1.398 0zm4.915 0c-.4-.4-.4-.999 0-1.398.4-.4.999-.4 1.398 0 .4.4.4.999 0 1.398-.399.4-.998.4-1.398 0zm4.955 0c-.4-.4-.4-.999 0-1.398.4-.4.999-.4 1.398 0 .4.4.4.999 0 1.398-.399.4-1.039.4-1.398 0zm4.915 0c-.4-.4-.4-.999 0-1.398.4-.4.999-.4 1.398 0 .4.4.4.999 0 1.398-.4.4-1.039.4-1.398 0zm4.914 0c-.4-.4-.4-.999 0-1.398.4-.4.999-.4 1.398 0 .4.4.4.999 0 1.398-.359.4-.998.4-1.398 0zm-17.741 3.716h17.182c.4 0 .719.32.719.719 0 .4-.32.719-.719.719H11.429c-.4 0-.719-.32-.719-.719 0-.399.32-.719.719-.719zm-4.435-8.79c-.4-.4-.4-.999 0-1.398.4-.4.999-.4 1.398 0 .4.4.4.999 0 1.398a1.04 1.04 0 0 1-1.398 0zm4.954 0c-.4-.4-.4-.999 0-1.398.4-.4.999-.4 1.398 0 .4.4.4.999 0 1.398-.398.36-1.038.36-1.398 0zm4.915 0c-.4-.4-.4-.999 0-1.398.4-.4.999-.4 1.398 0 .4.4.4.999 0 1.398-.399.36-1.038.36-1.398 0zm4.915 0c-.4-.4-.4-.999 0-1.398.4-.4.999-.4 1.398 0 .4.4.4.999 0 1.398a1.04 1.04 0 0 1-1.398 0zm4.955 0c-.4-.4-.4-.999 0-1.398.4-.4.999-.4 1.398 0 .4.4.4.999 0 1.398-.399.36-1.039.36-1.398 0zm4.915 0c-.4-.4-.4-.999 0-1.398.4-.4.999-.4 1.398 0 .4.4.4.999 0 1.398a1.04 1.04 0 0 1-1.398 0z"/>
</svg>
