<svg xmlns="http://www.w3.org/2000/svg" viewBox="0 0 100 100">
  <path d="M88.927 30.039c.062.871.062 1.741.062 2.612 0 26.552-20.209 57.146-57.146 57.146-11.38 0-21.951-3.296-30.843-9.016 1.617.186 3.171.249 4.85.249 9.389 0 18.033-3.171 24.935-8.581-8.83-.187-16.23-5.97-18.779-13.929 1.244.186 2.487.311 3.793.311 1.803 0 3.607-.249 5.286-.684C11.882 56.28 4.98 48.197 4.98 38.434v-.249a20.23 20.23 0 0 0 9.079 2.549c-5.41-3.607-8.954-9.763-8.954-16.727 0-3.731.995-7.151 2.736-10.136 9.887 12.188 24.749 20.147 41.414 21.018a22.66 22.66 0 0 1-.497-4.601c0-11.069 8.954-20.085 20.085-20.085a20.035 20.035 0 0 1 14.675 6.343 39.58 39.58 0 0 0 12.748-4.85c-1.493 4.664-4.664 8.581-8.83 11.068 4.042-.435 7.959-1.555 11.566-3.109a43.235 43.235 0 0 1-10.075 10.384z"/>
</svg>
